<?xml version="1.0" encoding="UTF-8" standalone="no"?>
<!DOCTYPE svg PUBLIC "-//W3C//DTD SVG 1.1//EN" "http://www.w3.org/Graphics/SVG/1.1/DTD/svg11.dtd">
<svg width="100%" height="100%" viewBox="0 0 1080 1080" version="1.1" xmlns="http://www.w3.org/2000/svg" xmlns:xlink="http://www.w3.org/1999/xlink" xml:space="preserve" xmlns:serif="http://www.serif.com/" style="fill-rule:evenodd;clip-rule:evenodd;stroke-linejoin:round;stroke-miterlimit:2;">
    <g transform="matrix(1,0,0,1,-11587.5,-1970.13)">
        <g id="Монтажная-область1" serif:id="Монтажная область1" transform="matrix(1,0,0,1,11587.5,1970.13)">
            <rect x="0" y="0" width="1080" height="1080" style="fill:none;"/>
            <g transform="matrix(1.25817,0,0,1.25817,-139.412,-139.414)">
                <g transform="matrix(3.50239,0,0,3.50239,-2822.29,-2039.53)">
                    <path d="M946.855,617.486L863.497,665.613C855.363,670.309 850.352,678.988 850.352,688.381L850.352,784.634C850.352,794.027 855.363,802.706 863.497,807.402C882.961,818.639 927.391,844.291 946.855,855.529C954.989,860.225 965.011,860.225 973.145,855.529C992.609,844.291 1037.04,818.639 1056.5,807.402C1064.64,802.706 1069.65,794.027 1069.65,784.634L1069.65,688.381C1069.65,678.988 1064.64,670.309 1056.5,665.613C1037.04,654.375 992.609,628.724 973.145,617.486C965.011,612.79 954.989,612.79 946.855,617.486Z" style="fill:rgb(0,109,93);"/>
                </g>
                <g transform="matrix(3.50239,0,0,3.50239,-2822.29,-2039.53)">
                    <path d="M908.944,795.045L908.875,677.97C908.876,674.348 911.017,671.737 914.21,669.896L955.393,646.118C958.096,644.558 961.426,644.558 964.128,646.118L1005.05,669.744C1008.1,671.482 1010.76,674.203 1010.76,677.97L1010.83,795.045C1010.83,798.811 1008.45,802.027 1005.12,803.271L964.198,826.896C961.495,828.457 958.165,828.457 955.462,826.896L914.279,803.119C911.145,801.779 908.946,798.667 908.944,795.045ZM1007.86,678.013L1007.93,795.001C1007.93,796.938 1006.99,798.741 1005.44,799.853L1005.44,799.863L1005.33,799.925C1005.21,800.009 1005.08,800.089 1004.95,800.164L1004.46,800.446C1004.42,800.465 1004.38,800.484 1004.33,800.502L999.333,803.393L999.349,803.398L979.819,814.674L971.908,819.248L971.9,819.246L962.811,824.494C960.966,825.559 958.694,825.559 956.849,824.494L920.353,803.423L920.376,803.415L914.239,799.867L914.253,799.832C912.773,798.757 911.809,797.012 911.808,795.044L911.739,677.971C911.74,674.717 914.373,672.074 917.623,672.056L917.626,672.056C918.648,672.049 919.685,672.306 920.632,672.857L956.76,693.537C959.194,694.423 961.929,694.211 964.218,692.899L999.007,672.857C999.954,672.306 1000.99,672.049 1002.01,672.056C1002.86,672.061 1003.67,672.244 1004.39,672.569L1004.88,672.851C1006.73,673.916 1007.86,675.884 1007.86,678.013ZM923.687,790.779C923.687,790.779 923.627,705.129 923.616,690.438C923.616,689.998 923.85,689.591 924.232,689.371C924.612,689.15 925.082,689.149 925.463,689.369C932.449,693.383 956.845,707.402 956.845,707.402C958.685,708.456 960.951,708.456 962.791,707.402C962.791,707.402 987.224,693.401 994.212,689.396C994.594,689.177 995.063,689.179 995.443,689.399C995.824,689.62 996.058,690.026 996.058,690.466C996.05,705.143 996.008,790.759 996.008,790.759C996.009,791.255 995.744,791.713 995.315,791.96L992.932,793.336L992.907,793.331L975.011,803.683L960.524,812.047C960.095,812.295 959.566,812.295 959.137,812.047L932.454,796.642L932.422,796.661L929.504,794.978L929.538,794.958L924.38,791.98C923.951,791.733 923.687,791.275 923.687,790.779ZM993.161,693.249L993.231,779.766L990.399,778.121L990.472,778.121L985.293,775.154L981.826,773.141L981.826,773.169L964.304,763.133C961.571,761.568 958.204,761.568 955.471,763.133L937.951,773.167L937.951,773.141L934.701,775.028L929.302,778.121L929.378,778.121L926.5,779.792L926.431,693.222L955.401,709.882C958.134,711.447 961.501,711.447 964.234,709.882L993.161,693.249ZM959.854,647.687C958.86,647.687 957.523,648.092 956.78,648.521L920.283,669.592C920.894,669.784 921.494,670.046 922.07,670.381L956.829,690.419C958.669,691.473 960.935,691.473 962.775,690.419L997.568,670.381C998.121,670.06 998.695,669.805 999.28,669.616L962.741,648.521C962.076,648.137 960.847,647.687 959.854,647.687Z" style="fill:white;"/>
                </g>
                <g transform="matrix(3.50239,0,0,3.50239,-2822.29,-2039.71)">
                    <path d="M888.226,702.215C884.19,702.237 880.919,705.519 880.918,709.561L880.901,763.555C880.9,767.611 884.192,770.904 888.247,770.906C892.303,770.907 895.597,767.615 895.598,763.56L895.611,722.326L955.568,757.157C956.816,757.881 958.189,758.197 959.532,758.145L959.536,758.146C960.373,758.175 961.212,758.066 962.012,757.813C962.53,757.65 963.027,757.428 963.497,757.157L1024.11,721.947L1024.09,763.555C1024.09,767.611 1027.38,770.904 1031.44,770.906C1035.5,770.907 1038.79,767.615 1038.79,763.56L1038.81,709.566C1038.81,705.51 1035.52,702.216 1031.46,702.215C1031.35,702.215 1031.23,702.217 1031.12,702.223C1029.76,702.16 1028.37,702.475 1027.1,703.209L959.532,742.463L891.962,703.209C890.785,702.525 889.496,702.206 888.226,702.215Z" style="fill:rgb(206,219,7);"/>
                </g>
            </g>
            <g transform="matrix(1.25817,0,0,1.25817,-139.412,-139.414)">
                <g transform="matrix(3.50239,0,0,3.50239,-2822.29,-2039.53)">
                    <path d="M946.855,617.486L863.497,665.613C855.363,670.309 850.352,678.988 850.352,688.381L850.352,784.634C850.352,794.027 855.363,802.706 863.497,807.402C882.961,818.639 927.391,844.291 946.855,855.529C954.989,860.225 965.011,860.225 973.145,855.529C992.609,844.291 1037.04,818.639 1056.5,807.402C1064.64,802.706 1069.65,794.027 1069.65,784.634L1069.65,688.381C1069.65,678.988 1064.64,670.309 1056.5,665.613C1037.04,654.375 992.609,628.724 973.145,617.486C965.011,612.79 954.989,612.79 946.855,617.486Z" style="fill:rgb(0,109,93);"/>
                </g>
                <g transform="matrix(3.50239,0,0,3.50239,-2822.29,-2039.53)">
                    <path d="M908.944,795.045L908.875,677.97C908.876,674.348 911.017,671.737 914.21,669.896L955.393,646.118C958.096,644.558 961.426,644.558 964.128,646.118L1005.05,669.744C1008.1,671.482 1010.76,674.203 1010.76,677.97L1010.83,795.045C1010.83,798.811 1008.45,802.027 1005.12,803.271L964.198,826.896C961.495,828.457 958.165,828.457 955.462,826.896L914.279,803.119C911.145,801.779 908.946,798.667 908.944,795.045ZM1007.86,678.013L1007.93,795.001C1007.93,796.938 1006.99,798.741 1005.44,799.853L1005.44,799.863L1005.33,799.925C1005.21,800.009 1005.08,800.089 1004.95,800.164L1004.46,800.446C1004.42,800.465 1004.38,800.484 1004.33,800.502L999.333,803.393L999.349,803.398L979.819,814.674L971.908,819.248L971.9,819.246L962.811,824.494C960.966,825.559 958.694,825.559 956.849,824.494L920.353,803.423L920.376,803.415L914.239,799.867L914.253,799.832C912.773,798.757 911.809,797.012 911.808,795.044L911.739,677.971C911.74,674.717 914.373,672.074 917.623,672.056L917.626,672.056C918.648,672.049 919.685,672.306 920.632,672.857L956.76,693.537C959.194,694.423 961.929,694.211 964.218,692.899L999.007,672.857C999.954,672.306 1000.99,672.049 1002.01,672.056C1002.86,672.061 1003.67,672.244 1004.39,672.569L1004.88,672.851C1006.73,673.916 1007.86,675.884 1007.86,678.013ZM923.687,790.779C923.687,790.779 923.627,705.129 923.616,690.438C923.616,689.998 923.85,689.591 924.232,689.371C924.612,689.15 925.082,689.149 925.463,689.369C932.449,693.383 956.845,707.402 956.845,707.402C958.685,708.456 960.951,708.456 962.791,707.402C962.791,707.402 987.224,693.401 994.212,689.396C994.594,689.177 995.063,689.179 995.443,689.399C995.824,689.62 996.058,690.026 996.058,690.466C996.05,705.143 996.008,790.759 996.008,790.759C996.009,791.255 995.744,791.713 995.315,791.96L992.932,793.336L992.907,793.331L975.011,803.683L960.524,812.047C960.095,812.295 959.566,812.295 959.137,812.047L932.454,796.642L932.422,796.661L929.504,794.978L929.538,794.958L924.38,791.98C923.951,791.733 923.687,791.275 923.687,790.779ZM993.161,693.249L993.231,779.766L990.399,778.121L990.472,778.121L985.293,775.154L981.826,773.141L981.826,773.169L964.304,763.133C961.571,761.568 958.204,761.568 955.471,763.133L937.951,773.167L937.951,773.141L934.701,775.028L929.302,778.121L929.378,778.121L926.5,779.792L926.431,693.222L955.401,709.882C958.134,711.447 961.501,711.447 964.234,709.882L993.161,693.249ZM959.854,647.687C958.86,647.687 957.523,648.092 956.78,648.521L920.283,669.592C920.894,669.784 921.494,670.046 922.07,670.381L956.829,690.419C958.669,691.473 960.935,691.473 962.775,690.419L997.568,670.381C998.121,670.06 998.695,669.805 999.28,669.616L962.741,648.521C962.076,648.137 960.847,647.687 959.854,647.687Z" style="fill:white;"/>
                </g>
                <g transform="matrix(3.50239,0,0,3.50239,-2822.29,-2039.71)">
                    <path d="M888.226,702.215C884.19,702.237 880.919,705.519 880.918,709.561L880.901,763.555C880.9,767.611 884.192,770.904 888.247,770.906C892.303,770.907 895.597,767.615 895.598,763.56L895.611,722.326L955.568,757.157C956.816,757.881 958.189,758.197 959.532,758.145L959.536,758.146C960.373,758.175 961.212,758.066 962.012,757.813C962.53,757.65 963.027,757.428 963.497,757.157L1024.11,721.947L1024.09,763.555C1024.09,767.611 1027.38,770.904 1031.44,770.906C1035.5,770.907 1038.79,767.615 1038.79,763.56L1038.81,709.566C1038.81,705.51 1035.52,702.216 1031.46,702.215C1031.35,702.215 1031.23,702.217 1031.12,702.223C1029.76,702.16 1028.37,702.475 1027.1,703.209L959.532,742.463L891.962,703.209C890.785,702.525 889.496,702.206 888.226,702.215Z" style="fill:white;"/>
                </g>
            </g>
        </g>
    </g>
</svg>
